<svg width="20" height="34" viewBox="0 0 20 34" fill="none" xmlns="http://www.w3.org/2000/svg">
<path d="M0.000784247 8.65909C-0.00426423 8.78142 0.0151026 8.90351 0.057693 9.01787C0.100283 9.13222 0.165197 9.23642 0.248443 9.32405C0.331689 9.41168 0.431508 9.4809 0.541762 9.52744C0.652015 9.57399 0.770371 9.59687 0.889555 9.5947H3.93203C4.44096 9.5947 4.84662 9.16667 4.913 8.64773C5.24491 6.16288 6.90444 4.35227 9.8621 4.35227C12.392 4.35227 14.7079 5.65152 14.7079 8.77652C14.7079 11.1818 13.3287 12.2879 11.1492 13.9697C8.66723 15.822 6.70161 17.9848 6.84175 21.4962L6.85281 22.3182C6.85668 22.5667 6.95552 22.8037 7.12801 22.978C7.30049 23.1523 7.53279 23.25 7.77477 23.25H10.7656C11.0101 23.25 11.2446 23.1502 11.4175 22.9726C11.5904 22.795 11.6876 22.5542 11.6876 22.303V21.9053C11.6876 19.1856 12.6944 18.3939 15.4123 16.2765C17.6582 14.5227 20 12.5758 20 8.48864C20 2.76515 15.2943 0 10.1424 0C5.46987 0 0.35113 2.23485 0.000784247 8.65909ZM5.74277 30.4886C5.74277 32.5076 7.3101 34 9.4675 34C11.7134 34 13.2586 32.5076 13.2586 30.4886C13.2586 28.3977 11.7097 26.928 9.46381 26.928C7.3101 26.928 5.74277 28.3977 5.74277 30.4886Z" fill="white"/>
</svg>
